# xmcd
#
# Track frame offsets:
#	150
#	18885
#	32384
#	56161
#	73159
#	90968
#	109873
#	125431
#	150932
#	181746
#	208713
#	229519
#	241077
#	273710
#
# Disc length: 3861 seconds
#
# Revision: 0
# Processed by: cddbd v1.5.2PL0 Copyright (c) Steve Scherf et al.
# Submitted via: EZCDAudioConverter 1.0.6.1
#
DISCID=ab0f130e
DTITLE=Corey Ledet and His Zydeco Band - 3 Years 2 Late
DYEAR=2003
DGENRE=blues
TTITLE0=Boudin man
TTITLE1=Leon's boogie
TTITLE2=The one
TTITLE3=Magic lady
TTITLE4=Diggy liggy lo
TTITLE5=Do it all night 
TTITLE6=Tante Eun waltz 
TTITLE7=Trailride
TTITLE8=You left me last night
TTITLE9=Dance all night
TTITLE10=My babe
TTITLE11=That song
TTITLE12=Sound check
TTITLE13=Way back home
EXTD=
EXTT0=
EXTT1=
EXTT2=
EXTT3=
EXTT4=
EXTT5=
EXTT6=
EXTT7=
EXTT8=
EXTT9=
EXTT10=
EXTT11=
EXTT12=
EXTT13=
PLAYORDER=
